<svg id="Capa_1" data-name="Capa 1" xmlns="http://www.w3.org/2000/svg" viewBox="0 0 308 60"><defs><style>.cls-1,.cls-3{fill:#e4283c;}.cls-2{fill:#d8d8d8;}.cls-3,.cls-4,.cls-5{fill-rule:evenodd;}.cls-4{fill:#136cbe;}.cls-5{fill:#8f8f8f;}</style></defs><title>logo_simple_ayuda</title><path class="cls-1" d="M231.06,39.19a1.27,1.27,0,0,1-.5,1,1.67,1.67,0,0,1-1.1.42,1.43,1.43,0,0,1-.79-.24,1.47,1.47,0,0,1-.55-.69L226,34.9H214.29l-2.11,4.8a1.49,1.49,0,0,1-1.37.93,1.71,1.71,0,0,1-1.14-.42,1.27,1.27,0,0,1-.5-1,1.91,1.91,0,0,1,.16-.64l9-19.74a1.69,1.69,0,0,1,.72-.8,2,2,0,0,1,1-.29,2.07,2.07,0,0,1,1,.29,1.69,1.69,0,0,1,.72.8l9,19.74A1.91,1.91,0,0,1,231.06,39.19Zm-15.58-6.91h9.37l-4.7-10.59Z"/><path class="cls-1" d="M245,24.79a1.55,1.55,0,0,1,1.86.2,1.29,1.29,0,0,1,.46,1,1.46,1.46,0,0,1-.13.61l-8.89,18.87a1.55,1.55,0,0,1-.56.69,1.43,1.43,0,0,1-.79.24,1.63,1.63,0,0,1-1-.38,1.2,1.2,0,0,1-.46-1,1.62,1.62,0,0,1,.16-.64l2.21-4.71L231.6,26.59a1.37,1.37,0,0,1-.13-.58,1.26,1.26,0,0,1,.52-1,1.76,1.76,0,0,1,1.15-.42,1.4,1.4,0,0,1,1.37.9l5,11,4.93-11A1.4,1.4,0,0,1,245,24.79Z"/><path class="cls-1" d="M263.2,25a1.58,1.58,0,0,1,.43,1.16v13a1.4,1.4,0,0,1-.45,1.08,1.65,1.65,0,0,1-1.18.42,1.48,1.48,0,0,1-1.09-.4,1.41,1.41,0,0,1-.42-1.07V37.94a5,5,0,0,1-2,2.05,6,6,0,0,1-2.9.71c-3.79,0-5.69-2.1-5.69-6.28V26.11A1.54,1.54,0,0,1,250.3,25a1.69,1.69,0,0,1,1.2-.41,1.65,1.65,0,0,1,1.17.41,1.54,1.54,0,0,1,.43,1.16v8.28a4.24,4.24,0,0,0,.77,2.79,3,3,0,0,0,2.37.89,4,4,0,0,0,3-1.21,4.54,4.54,0,0,0,1.14-3.24V26.11a1.51,1.51,0,0,1,.44-1.14,1.87,1.87,0,0,1,2.36,0Z"/><path class="cls-1" d="M282.09,18.17a1.45,1.45,0,0,1,.45,1.12V39.06a1.51,1.51,0,0,1-.44,1.15,1.57,1.57,0,0,1-1.16.42,1.6,1.6,0,0,1-1.17-.42,1.5,1.5,0,0,1-.43-1.15V37.78a5,5,0,0,1-2,2.16,6.27,6.27,0,0,1-3.1.76,6.48,6.48,0,0,1-3.6-1,6.78,6.78,0,0,1-2.47-2.88,9.9,9.9,0,0,1-.88-4.25,9.82,9.82,0,0,1,.88-4.26,6.67,6.67,0,0,1,2.45-2.81,6.54,6.54,0,0,1,3.62-1,6.14,6.14,0,0,1,3.08.76,5,5,0,0,1,2,2.12V19.23a1.37,1.37,0,0,1,.44-1.07,1.6,1.6,0,0,1,1.16-.4A1.67,1.67,0,0,1,282.09,18.17ZM278.18,36.7a6.42,6.42,0,0,0,1.16-4.1,6.44,6.44,0,0,0-1.14-4.09A3.9,3.9,0,0,0,275,27.07a4,4,0,0,0-3.28,1.42,6.22,6.22,0,0,0-1.16,4.05,6.42,6.42,0,0,0,1.18,4.11A4,4,0,0,0,275,38.14,3.89,3.89,0,0,0,278.18,36.7Z"/><path class="cls-1" d="M298.23,26a6.65,6.65,0,0,1,1.52,4.77V39.1a1.49,1.49,0,0,1-.42,1.13,1.58,1.58,0,0,1-1.15.4,1.51,1.51,0,0,1-1.12-.42,1.49,1.49,0,0,1-.42-1.11V37.91a4.38,4.38,0,0,1-1.8,2.06,5.27,5.27,0,0,1-2.8.73,6.28,6.28,0,0,1-2.82-.63,4.85,4.85,0,0,1-2-1.74,4.53,4.53,0,0,1-.72-2.5,3.87,3.87,0,0,1,.88-2.67,5.29,5.29,0,0,1,2.91-1.39,29.07,29.07,0,0,1,5.59-.42h.73v-.93a3.78,3.78,0,0,0-.73-2.59,3.1,3.1,0,0,0-2.37-.8,7.58,7.58,0,0,0-2.11.29,16.07,16.07,0,0,0-2.18.83,3.11,3.11,0,0,1-1.21.48,1,1,0,0,1-.79-.35,1.31,1.31,0,0,1-.3-.89,1.39,1.39,0,0,1,.27-.85,2.67,2.67,0,0,1,.88-.72,11,11,0,0,1,2.62-1,12.61,12.61,0,0,1,2.91-.37A6.22,6.22,0,0,1,298.23,26ZM295.49,37.1A4.33,4.33,0,0,0,296.61,34v-.83H296a24.84,24.84,0,0,0-3.84.22,3.76,3.76,0,0,0-1.92.75,1.94,1.94,0,0,0-.58,1.52,2.42,2.42,0,0,0,.83,1.89,3,3,0,0,0,2.08.74A3.74,3.74,0,0,0,295.49,37.1Z"/><path class="cls-2" d="M194.28,46.4A1.32,1.32,0,0,1,193,45.07V11.39a1.33,1.33,0,1,1,2.66,0V45.07A1.33,1.33,0,0,1,194.28,46.4Z"/><g id="Page-1"><g id="Implementación-de-Logotipo"><g id="Group-34"><g id="Fill-4"><path class="cls-3" d="M9.29,14.12a1.53,1.53,0,1,1,1.53,1.53,1.53,1.53,0,0,1-1.53-1.53"/></g><g id="Fill-6"><path class="cls-3" d="M35.62,29.86a1.54,1.54,0,1,1,1.53,1.54,1.54,1.54,0,0,1-1.53-1.54"/></g><g id="Fill-8"><path class="cls-3" d="M18.85,22a1.54,1.54,0,1,1,1.54,1.54A1.54,1.54,0,0,1,18.85,22"/></g><g id="Fill-10"><path class="cls-3" d="M18.86,37.68a1.53,1.53,0,1,1,1.53,1.54,1.54,1.54,0,0,1-1.53-1.54"/></g><g id="Fill-12"><path class="cls-3" d="M46.13,45.54a1.52,1.52,0,1,1,1.52,1.52,1.52,1.52,0,0,1-1.52-1.52"/></g><g id="Fill-14"><path class="cls-4" d="M45,12.59H15.13a1.53,1.53,0,0,0,0,3.06H45a2.4,2.4,0,0,1,.18,4.8H24.73a1.53,1.53,0,0,0,0,3.06H45.26A5.46,5.46,0,0,0,45,12.59"/></g><g id="Fill-16"><path class="cls-4" d="M44.84,28.3H41.49a1.53,1.53,0,0,0,0,3.06H45a2.4,2.4,0,0,1,.13,4.79,1,1,0,0,0-.17,0,1,1,0,0,0-.24,0h-20a1.54,1.54,0,0,0,0,3.07h20a1.6,1.6,0,0,0,.23,0,1,1,0,0,0,.24,0h.06a5.46,5.46,0,0,0-.42-10.92"/></g><g id="Fill-18"><path class="cls-4" d="M32.83,28.31h-19l-.28,0a2.39,2.39,0,0,1-1.72-.63,2.4,2.4,0,0,1,1.53-4.16h2.66a1.53,1.53,0,0,0,0-3.06H13.29a5.46,5.46,0,0,0,.2,10.92h.21l.11,0,.21,0H32.83a1.53,1.53,0,0,0,0-3.06"/></g><g id="Fill-20"><path class="cls-4" d="M43.29,44h-29l-.3,0a1.38,1.38,0,0,0-.35,0,2.4,2.4,0,0,1-.19-4.79l.1,0,.14,0h2.42a1.54,1.54,0,0,0,0-3.07H13.64l-.14,0-.21,0a5.46,5.46,0,0,0-5.24,5.67,5.44,5.44,0,0,0,5.44,5.25h.21a1.46,1.46,0,0,0,.22,0,1.73,1.73,0,0,0,.32,0H43.29a1.53,1.53,0,0,0,0-3.06"/></g><g id="Fill-22"><path class="cls-5" d="M137.19,21.24a10.18,10.18,0,0,0-7,2.56V22.5h0a1.61,1.61,0,0,0-3.21,0h0v26h0a1.6,1.6,0,0,0,3.18,0h0V38.06a10.15,10.15,0,0,0,7,2.68A9.82,9.82,0,0,0,147.26,31c0-5.33-4-9.73-10.07-9.73m0,16.49A6.68,6.68,0,0,1,130.55,31a6.64,6.64,0,1,1,13.28,0,6.68,6.68,0,0,1-6.64,6.76"/></g><g id="Fill-24"><path class="cls-5" d="M156.29,37.65h-1c-1,0-2.07-.71-2.07-2.82V13.67a.43.43,0,0,0,0-.05.43.43,0,0,1,0,0v-.05h0a1.6,1.6,0,0,0-3.2,0h0V35.08c0,3.9,2,5.58,4.93,5.58h1.32v0a1.5,1.5,0,0,0,0-3"/></g><g id="Fill-26"><path class="cls-5" d="M83.93,22.59a1.59,1.59,0,1,0-3.17,0V38.92h0a1.58,1.58,0,0,0,3.16,0h0V22.59"/></g><g id="Fill-28"><path class="cls-5" d="M123,29.78v0s0-.05,0-.08v-.25h0a8.65,8.65,0,0,0-9-8.43,8.89,8.89,0,0,0-7.49,3.69A8.91,8.91,0,0,0,98.91,21a8.66,8.66,0,0,0-9,8.43h0v9.49a1.55,1.55,0,1,0,3.1,0V29.75a6,6,0,0,1,11.9-.32h0v9.49a1.55,1.55,0,0,0,1.55,1.56h0A1.55,1.55,0,0,0,108,38.92V30.16s0,0,0,0,0,0,0,0v-.31h0v0s0-.05,0-.08v-.25h0a6,6,0,0,1,11.9.33v9.16a1.55,1.55,0,1,0,3.1,0V30.16s0,0,0,0,0,0,0,0v-.31Z"/></g><g id="Fill-30"><path class="cls-5" d="M179.38,30.2c0-3.43-2.63-8.88-9.68-8.88a9.6,9.6,0,0,0-10,9.67c0,5.72,4.35,9.67,10.58,9.67a11.15,11.15,0,0,0,7-2.25,1.73,1.73,0,0,0,.68-1.13,1.89,1.89,0,0,0-1.73-1.76,1.58,1.58,0,0,0-1,.29,8.65,8.65,0,0,1-4.92,1.9c-3.27,0-6-1.67-6.72-4.59l-.23-1h13.91a1.87,1.87,0,0,0,2-1.93Zm-15.92-1a6.26,6.26,0,0,1,12.23,0Z"/></g><g id="Fill-32"><path class="cls-5" d="M75.75,35.14a4.92,4.92,0,0,0-.64-2.64A4.82,4.82,0,0,0,73,30.77a19.45,19.45,0,0,0-4.16-1.27,11.54,11.54,0,0,1-3.56-1.19,2.08,2.08,0,0,1-1-1.83,2.39,2.39,0,0,1,1.06-2,4.68,4.68,0,0,1,2.75-.74,6.78,6.78,0,0,1,2.37.37,14.46,14.46,0,0,1,2,1,9.15,9.15,0,0,0,1,.52,1.66,1.66,0,0,0,.67.15,1.06,1.06,0,0,0,.81-.4,1.55,1.55,0,0,0,.35-1A2.37,2.37,0,0,0,74,22.39a8.76,8.76,0,0,0-2.64-1.21,11.71,11.71,0,0,0-3.07-.41,9.85,9.85,0,0,0-3.94.75,6.36,6.36,0,0,0-2.7,2.1,5,5,0,0,0-1,3,4.31,4.31,0,0,0,1.5,3.45,11.72,11.72,0,0,0,5,2,25.56,25.56,0,0,1,3.08.82,3.52,3.52,0,0,1,1.49.89,2,2,0,0,1,.45,1.35,2.24,2.24,0,0,1-1.13,2,5.73,5.73,0,0,1-3,.69,8.77,8.77,0,0,1-2.88-.4,17.07,17.07,0,0,1-2.35-1,3.77,3.77,0,0,0-1.58-.63,1,1,0,0,0-.83.4,1.55,1.55,0,0,0-.33,1,1.86,1.86,0,0,0,.28,1,3,3,0,0,0,1,.88h0a12,12,0,0,0,6.59,1.66,9.61,9.61,0,0,0,5.73-1.56,4.8,4.8,0,0,0,2.12-4.07"/></g></g></g></g></svg>